<svg id="Layer_1" data-name="Layer 1" xmlns="http://www.w3.org/2000/svg" xmlns:xlink="http://www.w3.org/1999/xlink" viewBox="0 0 3990.76 3891.99"><defs><style>.cls-1,.cls-10,.cls-11,.cls-4,.cls-5,.cls-7,.cls-8,.cls-9{fill:none;}.cls-2{clip-path:url(#clip-path);}.cls-3{fill:url(#radial-gradient);}.cls-4,.cls-5{stroke:#c5bfff;opacity:0.06;}.cls-10,.cls-11,.cls-4,.cls-5,.cls-7,.cls-8,.cls-9{stroke-miterlimit:10;}.cls-4{stroke-width:19.09px;}.cls-5{stroke-width:8.91px;}.cls-6{fill:#fff;stroke-linejoin:bevel;stroke-width:8px;}.cls-6,.cls-8,.cls-9{stroke:#000;}.cls-11,.cls-6,.cls-9{stroke-linecap:square;}.cls-7{stroke:#0027a1;}.cls-10,.cls-11,.cls-7,.cls-8,.cls-9{stroke-width:63.65px;}.cls-10,.cls-11{stroke:#fff;}</style><clipPath id="clip-path" transform="translate(50.76 -203.15)"><polygon class="cls-1" points="2987.98 332 1083.95 332 131.93 1980.94 1083.95 3629.89 2987.98 3629.89 3940 1980.94 2987.98 332"/></clipPath><radialGradient id="radial-gradient" cx="2086.72" cy="1777.79" r="1781.06" gradientUnits="userSpaceOnUse"><stop offset="0" stop-color="#152d7d"/><stop offset="0.24" stop-color="#142b77"/><stop offset="0.56" stop-color="#122568"/><stop offset="0.9" stop-color="#0d1c4e"/><stop offset="1" stop-color="#0c1945"/></radialGradient></defs><title>noobcash_logo</title><g class="cls-2"><polygon class="cls-3" points="3038.74 128.85 1134.7 128.85 182.68 1777.79 1134.7 3426.73 3038.74 3426.73 3990.76 1777.79 3038.74 128.85"/><line class="cls-4" x1="434.7" y1="3763.42" x2="434.7"/><line class="cls-4" x1="948.96" y1="3763.42" x2="948.96"/><line class="cls-4" x1="1463.22" y1="3763.42" x2="1463.22"/><line class="cls-4" x1="1977.48" y1="3763.42" x2="1977.48"/><line class="cls-4" x1="2491.74" y1="3763.42" x2="2491.74"/><line class="cls-4" x1="3006" y1="3763.42" x2="3006"/><line class="cls-4" x1="3520.26" y1="3763.42" x2="3520.26"/><line class="cls-4" x1="187.42" y1="262.56" x2="3950.85" y2="262.56"/><line class="cls-5" x1="187.42" y1="346.57" x2="3950.85" y2="346.57"/><line class="cls-5" x1="205.24" y1="190" x2="3968.67" y2="190"/><line class="cls-5" x1="187.42" y1="435.67" x2="3950.85" y2="435.67"/><line class="cls-5" x1="187.42" y1="524.78" x2="3950.85" y2="524.78"/><line class="cls-5" x1="187.42" y1="613.88" x2="3950.85" y2="613.88"/><line class="cls-5" x1="187.42" y1="702.99" x2="3950.85" y2="702.99"/><line class="cls-5" x1="859.86" y1="91.65" x2="859.86" y2="3855.08"/><line class="cls-5" x1="770.75" y1="91.65" x2="770.75" y2="3855.08"/><line class="cls-5" x1="681.65" y1="91.65" x2="681.65" y2="3855.08"/><line class="cls-5" x1="592.55" y1="91.65" x2="592.55" y2="3855.08"/><line class="cls-5" x1="503.44" y1="91.65" x2="503.44" y2="3855.08"/><line class="cls-5" x1="1384.3" y1="63.65" x2="1384.3" y2="3827.07"/><line class="cls-5" x1="1295.2" y1="63.65" x2="1295.2" y2="3827.07"/><line class="cls-5" x1="1206.09" y1="63.65" x2="1206.09" y2="3827.07"/><line class="cls-5" x1="1116.99" y1="63.65" x2="1116.99" y2="3827.07"/><line class="cls-5" x1="1027.88" y1="63.65" x2="1027.88" y2="3827.07"/><line class="cls-5" x1="1903.65" y1="91.65" x2="1903.65" y2="3855.08"/><line class="cls-5" x1="1814.55" y1="91.65" x2="1814.55" y2="3855.08"/><line class="cls-5" x1="1725.45" y1="91.65" x2="1725.45" y2="3855.08"/><line class="cls-5" x1="1636.34" y1="91.65" x2="1636.34" y2="3855.08"/><line class="cls-5" x1="1547.24" y1="91.65" x2="1547.24" y2="3855.08"/><line class="cls-5" x1="2425.55" y1="91.65" x2="2425.55" y2="3855.08"/><line class="cls-5" x1="2336.45" y1="91.65" x2="2336.45" y2="3855.08"/><line class="cls-5" x1="2247.34" y1="91.65" x2="2247.34" y2="3855.08"/><line class="cls-5" x1="2158.24" y1="91.65" x2="2158.24" y2="3855.08"/><line class="cls-5" x1="2069.13" y1="91.65" x2="2069.13" y2="3855.08"/><line class="cls-5" x1="2907.99" y1="128.57" x2="2907.99" y2="3891.99"/><line class="cls-5" x1="2818.89" y1="128.57" x2="2818.89" y2="3891.99"/><line class="cls-5" x1="2729.78" y1="128.57" x2="2729.78" y2="3891.99"/><line class="cls-5" x1="2640.68" y1="128.57" x2="2640.68" y2="3891.99"/><line class="cls-5" x1="2551.57" y1="128.57" x2="2551.57" y2="3891.99"/><line class="cls-5" x1="3428.61" y1="128.57" x2="3428.61" y2="3891.99"/><line class="cls-5" x1="3339.51" y1="128.57" x2="3339.51" y2="3891.99"/><line class="cls-5" x1="3250.41" y1="128.57" x2="3250.41" y2="3891.99"/><line class="cls-5" x1="3161.3" y1="128.57" x2="3161.3" y2="3891.99"/><line class="cls-5" x1="3072.2" y1="128.57" x2="3072.2" y2="3891.99"/><line class="cls-5" x1="3968.33" y1="128.57" x2="3968.33" y2="3891.99"/><line class="cls-5" x1="3879.23" y1="128.57" x2="3879.23" y2="3891.99"/><line class="cls-5" x1="3790.12" y1="128.57" x2="3790.12" y2="3891.99"/><line class="cls-5" x1="3701.02" y1="128.57" x2="3701.02" y2="3891.99"/><line class="cls-5" x1="3611.92" y1="128.57" x2="3611.92" y2="3891.99"/><line class="cls-5" x1="360.87" y1="2.55" x2="360.87" y2="3765.97"/><line class="cls-5" x1="271.77" y1="2.55" x2="271.77" y2="3765.97"/><line class="cls-5" x1="182.66" y1="2.55" x2="182.66" y2="3765.97"/><line class="cls-5" x1="93.56" y1="2.55" x2="93.56" y2="3765.97"/><line class="cls-5" x1="4.46" y1="2.55" x2="4.46" y2="3765.97"/><line class="cls-5" x1="187.42" y1="859.56" x2="3950.85" y2="859.56"/><line class="cls-5" x1="187.42" y1="948.66" x2="3950.85" y2="948.66"/><line class="cls-5" x1="187.42" y1="1037.77" x2="3950.85" y2="1037.77"/><line class="cls-5" x1="187.42" y1="1126.87" x2="3950.85" y2="1126.87"/><line class="cls-5" x1="187.42" y1="1215.97" x2="3950.85" y2="1215.97"/><line class="cls-5" x1="187.42" y1="1370" x2="3950.85" y2="1370"/><line class="cls-5" x1="187.42" y1="1459.1" x2="3950.85" y2="1459.1"/><line class="cls-5" x1="187.42" y1="1548.21" x2="3950.85" y2="1548.21"/><line class="cls-5" x1="187.42" y1="1637.31" x2="3950.85" y2="1637.31"/><line class="cls-5" x1="187.42" y1="1726.42" x2="3950.85" y2="1726.42"/><line class="cls-5" x1="187.42" y1="1884.26" x2="3950.85" y2="1884.26"/><line class="cls-5" x1="187.42" y1="1973.36" x2="3950.85" y2="1973.36"/><line class="cls-5" x1="187.42" y1="2062.47" x2="3950.85" y2="2062.47"/><line class="cls-5" x1="187.42" y1="2151.57" x2="3950.85" y2="2151.57"/><line class="cls-5" x1="187.42" y1="2240.68" x2="3950.85" y2="2240.68"/><line class="cls-5" x1="205.24" y1="2398.52" x2="3968.67" y2="2398.52"/><line class="cls-5" x1="205.24" y1="2487.62" x2="3968.67" y2="2487.62"/><line class="cls-5" x1="205.24" y1="2576.73" x2="3968.67" y2="2576.73"/><line class="cls-5" x1="205.24" y1="2665.83" x2="3968.67" y2="2665.83"/><line class="cls-5" x1="205.24" y1="2754.94" x2="3968.67" y2="2754.94"/><line class="cls-5" x1="187.42" y1="2907.69" x2="3950.85" y2="2907.69"/><line class="cls-5" x1="187.42" y1="2996.79" x2="3950.85" y2="2996.79"/><line class="cls-5" x1="187.42" y1="3085.9" x2="3950.85" y2="3085.9"/><line class="cls-5" x1="187.42" y1="3175" x2="3950.85" y2="3175"/><line class="cls-5" x1="187.42" y1="3264.11" x2="3950.85" y2="3264.11"/><line class="cls-4" x1="187.42" y1="776.82" x2="3950.85" y2="776.82"/><line class="cls-4" x1="187.42" y1="1291.08" x2="3950.85" y2="1291.08"/><line class="cls-4" x1="187.42" y1="1805.34" x2="3950.85" y2="1805.34"/><line class="cls-4" x1="187.42" y1="2319.6" x2="3950.85" y2="2319.6"/><line class="cls-4" x1="187.42" y1="2833.86" x2="3950.85" y2="2833.86"/><line class="cls-4" x1="187.42" y1="3348.12" x2="3950.85" y2="3348.12"/><path class="cls-6" d="M2449,2758.06H2355v-37.72q0-19.73-3.2-26.75t-11.84-7q-8.62,0-11.58,6.17t-3,27.61v154.33q0,17.52,4.44,26.26t13.06,8.75q10.11,0,13.69-9.12t3.57-34.52v-38.95H2449q-.24,39.19-2.83,58.8t-16.52,40.19a88.26,88.26,0,0,1-36.36,31.06q-22.44,10.47-55.47,10.48-42.17,0-66.82-14.42t-34.88-40.44q-10.23-26-10.23-73.83V2746q0-41.66,8.38-62.87t35.75-37.84q27.36-16.64,66.56-16.64,39,0,66.57,16.52t36.73,41.66Q2449,2712,2449,2758.06Z" transform="translate(50.76 -203.15)"/><path class="cls-6" d="M2567.55,2761.27h-93.44v-21.95q0-38,8.75-58.55t35.14-36.36q26.37-15.78,68.53-15.78,50.53,0,76.18,17.87t30.82,43.89q5.17,26,5.18,107.12V2961.7h-96.89v-29.15q-9.12,17.53-23.55,26.3t-34.39,8.77a84.15,84.15,0,0,1-48-14.67q-21.82-14.67-21.82-64.22v-26.88q0-36.72,11.59-50t57.44-31.07q49.07-19.23,52.51-25.88t3.46-27.12q0-25.65-3.83-33.41t-12.69-7.77q-10.11,0-12.58,6.54t-2.46,33.9Zm31.56,44.87q-23.93,17.51-27.74,29.33t-3.82,34q0,25.39,3.33,32.79t13.19,7.39q9.36,0,12.2-5.79t2.84-30.45Z" transform="translate(50.76 -203.15)"/><path class="cls-6" d="M2936.37,2739.08h-88.26v-17.75q0-22.68-2.59-28.72t-12.94-6.05q-8.39,0-12.58,5.55t-4.19,16.64q0,15,2.1,22.07t12.57,15.41q10.47,8.39,43,24.4,43.39,21.21,56.95,39.94t13.56,54.49q0,39.93-10.35,60.28T2899,2956.65q-24.29,11-58.55,11-38,0-65-11.84t-37.1-32.05q-10.11-20.2-10.11-61.14v-15.78h88.26v20.71q0,26.39,3.33,34.27t13.19,7.89q10.59,0,14.79-5.3t4.19-22.31q0-23.42-5.42-29.34-5.67-5.91-57.94-35-43.87-24.64-53.5-44.74t-9.61-47.71q0-39.2,10.35-57.81t35.14-28.72q24.76-10.11,57.56-10.11,32.55,0,55.35,8.26t35,21.82q12.2,13.56,14.79,25.14t2.59,36.24Z" transform="translate(50.76 -203.15)"/><path class="cls-6" d="M3070.24,2562.56v89.8a89.42,89.42,0,0,1,27.73-17.8,85.73,85.73,0,0,1,31.93-5.93q26.13,0,44.5,13.31t22.44,30.7q4.07,17.37,4.06,63.48V2961.7h-99.6V2731.43q0-28.59-2.83-36.73t-12.7-8.14q-9.12,0-12.33,8.39t-3.2,33.28V2961.7h-99.6V2562.56Z" transform="translate(50.76 -203.15)"/><polygon class="cls-7" points="1848.8 1581.25 1482.52 1581.25 1299.38 1898.46 1482.52 2215.67 1848.8 2215.67 2031.94 1898.46 1848.8 1581.25"/><polygon class="cls-7" points="2731.49 1581.25 2365.21 1581.25 2182.07 1898.46 2365.21 2215.67 2731.49 2215.67 2914.64 1898.46 2731.49 1581.25"/><line class="cls-7" x1="1138.69" y1="1893.45" x2="1310.26" y2="1893.45"/><polyline class="cls-7" points="621.76 2209.67 438.62 1892.46 604.22 1605.63 1005.56 2179.32 1171.18 1892.46 988.05 1575.25"/><polygon class="cls-7" points="3614.19 1581.25 3247.9 1581.25 3064.76 1898.46 3247.9 2215.67 3614.19 2215.67 3797.33 1898.46 3614.19 1581.25"/><line class="cls-7" x1="2033.56" y1="1902.36" x2="2205.12" y2="1902.36"/><line class="cls-7" x1="2924.6" y1="1896.82" x2="3069.45" y2="1896.82"/><polygon class="cls-8" points="1833.53 1518.88 1467.24 1518.88 1284.1 1836.09 1467.24 2153.3 1833.53 2153.3 2016.67 1836.09 1833.53 1518.88"/><polygon class="cls-8" points="2716.22 1518.88 2349.94 1518.88 2166.8 1836.09 2349.94 2153.3 2716.22 2153.3 2899.36 1836.09 2716.22 1518.88"/><polygon class="cls-8" points="3598.91 1518.88 3232.63 1518.88 3049.49 1836.09 3232.63 2153.3 3598.91 2153.3 3782.05 1836.09 3598.91 1518.88"/><line class="cls-8" x1="2018.28" y1="1839.98" x2="2189.85" y2="1839.98"/><line class="cls-8" x1="2909.33" y1="1834.45" x2="3054.18" y2="1834.45"/><line class="cls-8" x1="1119.6" y1="1828.53" x2="1291.17" y2="1828.53"/><polyline class="cls-9" points="599.58 2147.21 416.43 1830 582.04 1543.17 983.38 2116.86 1149 1830 965.86 1512.79"/><polygon class="cls-10" points="1806.8 1448.87 1440.51 1448.87 1257.37 1766.08 1440.51 2083.29 1806.8 2083.29 1989.94 1766.08 1806.8 1448.87"/><polygon class="cls-10" points="2689.49 1448.87 2323.2 1448.87 2140.06 1766.08 2323.2 2083.29 2689.49 2083.29 2872.63 1766.08 2689.49 1448.87"/><polygon class="cls-10" points="3572.18 1448.87 3205.9 1448.87 3022.76 1766.08 3205.9 2083.29 3572.18 2083.29 3755.32 1766.08 3572.18 1448.87"/><line class="cls-10" x1="3022.34" y1="997.7" x2="3022.34" y2="1766.99"/><line class="cls-10" x1="1991.55" y1="1769.97" x2="2163.12" y2="1769.97"/><line class="cls-10" x1="1101.78" y1="1781.43" x2="1273.35" y2="1781.43"/><line class="cls-10" x1="2882.6" y1="1764.44" x2="3027.45" y2="1764.44"/><polyline class="cls-11" points="591.49 2098.57 408.34 1781.35 573.94 1494.53 975.28 2068.22 1140.9 1781.35 957.77 1464.14"/></g></svg>